<svg width="202" height="59" viewBox="0 0 202 59" fill="none" xmlns="http://www.w3.org/2000/svg">
<g clip-path="url(#clip0_5417_33177)">
<path d="M44.5988 0.200195C39.9437 0.200195 35.2081 2.15887 32.1869 5.26313L33.9014 8.69209L33.1766 9.27139C29.9737 3.74866 24.0847 0.200195 17.8164 0.200195C8.02045 0.200195 0.100034 8.77262 0.100034 18.8154V40.4516C0.0915563 40.6362 0.121622 40.8205 0.1883 40.9927C0.254977 41.165 0.356808 41.3215 0.487312 41.4523C0.617815 41.583 0.774116 41.6851 0.946271 41.7521C1.11843 41.8191 1.30266 41.8496 1.48722 41.8414H8.59194C8.93642 41.8414 9.26678 41.7046 9.51036 41.461C9.75395 41.2174 9.89079 40.887 9.89079 40.5426V18.6517C9.89079 13.6719 12.9119 9.5909 18.0554 9.5909C22.8715 9.5909 26.3005 13.1809 26.3005 18.488V36.4512C26.2884 36.629 26.313 36.8075 26.3728 36.9754C26.4326 37.1433 26.5264 37.2971 26.6482 37.4273C26.7701 37.5574 26.9174 37.661 27.081 37.7318C27.2447 37.8025 27.4211 37.8388 27.5994 37.8383H34.3898C34.568 37.8388 34.7445 37.8025 34.9081 37.7318C35.0717 37.661 35.219 37.5574 35.3409 37.4273C35.4627 37.2971 35.5565 37.1433 35.6163 36.9754C35.6761 36.8075 35.7007 36.629 35.6886 36.4512V18.488C35.6886 13.1809 39.2812 9.5909 44.0974 9.5909C49.2409 9.5909 52.0983 13.6719 52.0983 18.6517V40.5348C52.1145 40.8894 52.2686 41.2237 52.5278 41.4663C52.7869 41.709 53.1306 41.8408 53.4855 41.8336H60.4993C60.6841 41.8421 60.8686 41.812 61.0411 41.7452C61.2135 41.6783 61.3702 41.5763 61.5009 41.4455C61.6317 41.3147 61.7338 41.1581 61.8006 40.9856C61.8675 40.8131 61.8976 40.6286 61.8891 40.4439V18.8154C61.8891 8.77262 54.296 0.200195 44.5806 0.200195" fill="#00B463"/>
<path d="M86.6552 33.5132C79.6414 33.5132 74.7369 28.5308 74.7369 21.5092C74.7369 14.407 79.6336 9.3441 86.6552 9.3441C93.7599 9.3441 98.8229 14.407 98.8229 21.5092C98.8229 28.523 93.7599 33.5132 86.6552 33.5132ZM108.13 1.01586H101.67C101.492 1.00336 101.313 1.0277 101.145 1.08736C100.977 1.14701 100.823 1.2407 100.692 1.36258C100.562 1.48446 100.458 1.63191 100.387 1.79573C100.316 1.95954 100.28 2.13622 100.28 2.31471V3.21352L102.566 6.80615L101.951 7.42439C98.1786 3.14078 92.7884 0.192383 86.6448 0.192383C75.0513 0.192383 65.4995 9.66362 65.4995 21.4936C65.5139 27.0975 67.7462 32.4678 71.7086 36.4306C75.6709 40.3934 81.0409 42.6264 86.6448 42.6415C92.8351 42.6415 98.2644 39.7139 102.036 35.4303L102.556 35.8641L100.291 39.6308V40.4464C100.289 40.6294 100.324 40.8109 100.393 40.9803C100.462 41.1497 100.564 41.3036 100.694 41.433C100.823 41.5624 100.977 41.6647 101.146 41.734C101.316 41.8032 101.497 41.8379 101.68 41.8362H108.13C108.315 41.8443 108.499 41.8139 108.671 41.7469C108.844 41.6799 109 41.5778 109.13 41.4471C109.261 41.3163 109.363 41.1598 109.429 40.9875C109.496 40.8152 109.526 40.631 109.518 40.4464V2.3225C109.518 1.50683 108.946 1.02365 108.13 1.02365" fill="#00B463"/>
<path d="M178.822 33.5132C171.808 33.5132 166.904 28.5308 166.904 21.5092C166.904 14.407 171.801 9.3441 178.822 9.3441C185.927 9.3441 190.99 14.407 190.99 21.5092C190.99 28.523 185.927 33.5132 178.822 33.5132ZM200.297 1.01586H193.847C193.669 1.00336 193.491 1.0277 193.322 1.08736C193.154 1.14701 193 1.2407 192.87 1.36258C192.739 1.48446 192.635 1.63191 192.564 1.79573C192.493 1.95954 192.457 2.13622 192.458 2.31471V3.21352L194.744 6.80615L194.128 7.42439C190.356 3.14078 184.966 0.192383 178.822 0.192383C167.229 0.192383 157.677 9.66362 157.677 21.4936C157.691 27.0975 159.923 32.4678 163.886 36.4306C167.848 40.3934 173.218 42.6264 178.822 42.6415C185.012 42.6415 190.442 39.7139 194.214 35.4303L194.733 35.8641L192.447 39.6204V40.436C192.445 40.619 192.48 40.8005 192.549 40.9699C192.619 41.1393 192.721 41.2932 192.85 41.4226C192.98 41.552 193.134 41.6543 193.303 41.7236C193.472 41.7928 193.654 41.8276 193.837 41.8258H200.287C200.472 41.834 200.656 41.8035 200.828 41.7365C201 41.6695 201.156 41.5674 201.287 41.4367C201.417 41.3059 201.519 41.1494 201.586 40.9771C201.653 40.8049 201.683 40.6206 201.674 40.436V2.3225C201.674 1.50683 201.103 1.02365 200.287 1.02365" fill="#00B463"/>
<path d="M152.307 1.01562H145.696C144.634 1.01562 144.062 1.58712 144.062 2.15861V22.0804C144.062 28.2863 139.978 32.6141 133.692 32.6141C127.897 32.6141 124.14 28.2863 124.14 22.0804V2.15861C124.14 1.58712 123.241 1.01562 122.67 1.01562H115.568C115.271 1.03568 114.992 1.16255 114.782 1.37271C114.572 1.58287 114.445 1.86208 114.425 2.15861V21.9999C114.425 32.6141 122.753 41.8412 133.692 41.8412C138.638 41.8408 143.415 40.0392 147.13 36.7731L147.496 37.1056L144.556 41.106V42.6646C144.556 46.7456 138.433 49.0316 134.84 49.0316H132.554C131.739 49.0316 131.084 49.6031 131.084 50.3305V56.8637C131.084 57.5157 131.739 58.1626 132.554 58.1626H134.84C145.782 58.1626 153.783 51.793 153.783 39.7916V2.15861C153.783 1.58712 153.211 1.01562 152.312 1.01562" fill="#00B463"/>
</g>
<defs>
<clipPath id="clip0_5417_33177">
<rect width="201.582" height="57.9704" fill="white" transform="translate(0.100098 0.200195)"/>
</clipPath>
</defs>
</svg>
